<?xml version="1.0" encoding="UTF-8" standalone="no"?>
<!-- Created with Inkscape (http://www.inkscape.org/) -->

<svg
   xmlns:dc="http://purl.org/dc/elements/1.1/"
   xmlns:cc="http://creativecommons.org/ns#"
   xmlns:rdf="http://www.w3.org/1999/02/22-rdf-syntax-ns#"
   xmlns:svg="http://www.w3.org/2000/svg"
   xmlns="http://www.w3.org/2000/svg"
   xmlns:sodipodi="http://sodipodi.sourceforge.net/DTD/sodipodi-0.dtd"
   xmlns:inkscape="http://www.inkscape.org/namespaces/inkscape"
   width="882"
   height="180"
   id="svg3044"
   version="1.1"
   inkscape:version="0.48.5 r10040"
   sodipodi:docname="metachronica_logo_circle_and_cyrillic_text_v1.svg">
  <defs
     id="defs3046" />
  <sodipodi:namedview
     id="base"
     pagecolor="#ffffff"
     bordercolor="#666666"
     borderopacity="1.0"
     inkscape:pageopacity="0"
     inkscape:pageshadow="2"
     inkscape:zoom="0.98994949"
     inkscape:cx="435.05878"
     inkscape:cy="100.58241"
     inkscape:document-units="px"
     inkscape:current-layer="MetachronicaLogo"
     showgrid="false"
     inkscape:window-width="1440"
     inkscape:window-height="834"
     inkscape:window-x="0"
     inkscape:window-y="27"
     inkscape:window-maximized="1" />
  <metadata
     id="metadata3049">
    <rdf:RDF>
      <cc:Work
         rdf:about="">
        <dc:format>image/svg+xml</dc:format>
        <dc:type
           rdf:resource="http://purl.org/dc/dcmitype/StillImage" />
        <dc:title />
      </cc:Work>
    </rdf:RDF>
  </metadata>
  <g
     inkscape:label="Logo"
     inkscape:groupmode="layer"
     id="layer1"
     transform="translate(0,-872.36218)">
    <g
       id="MetachronicaLogo"
       style="fill:#000000">
      <g
         id="MetachronicaFullLogo">
        <desc
           id="desc3168">Authors:
  Mark Korneev
  Viacheslav Lotsmanov

License:
  CC Attribution-ShareAlike (CC-BY-SA)</desc>
        <g
           id="MetachronicaCyrillicText">
          <desc
             id="desc3149">Author: Viacheslav Lotsmanov
License: CC Attribution-ShareAlike (CC-BY-SA)</desc>
          <path
             style="fill:#000000;fill-opacity:1;fill-rule:nonzero;stroke:none"
             id="path3005"
             d="m 505.0327,976.79938 c 11.89375,0.75375 29.1,-5.4425 29.39375,-22.86125 0.26875,-15.9925 -11.72375,-23.36375 -27.96875,-23.36375 -1.9275,0 -8.4575,0.0838 -13.14875,0.0838 -5.275,0 -5.58875,3.9575 0.12625,4.08375 4.01875,0.0875 9.79625,0.205 12.56125,0.1875 13.44,-0.0838 24.25125,5.5325 23.57125,19.34375 -0.71,14.445 -15.95125,18.4225 -24.285,18.08875 l -0.25,4.4375 z m 1.71625,-52.98625 c 0,-4.96125 -4.28625,-5.39875 -4.14375,-0.18875 0.0725,2.72125 0,109.03622 0,122.34372 0,4.355 4.175,4.6488 4.175,0.1263 0,-4.6163 -0.0312,-120.48377 -0.0312,-122.28127"
             inkscape:connector-curvature="0" />
          <path
             style="fill:#000000;fill-opacity:1;fill-rule:nonzero;stroke:none"
             id="path3009"
             d="m 222.84882,970.89426 c -0.28625,-2.1275 -6.98875,-31.225 -10.70875,-31.27375 -3.72125,-0.0475 -7.9025,28.965 -12.68125,29.04625 -4.78,0.08 -11.8425,-28.725 -15.295,-26.7325 -3.34125,1.92875 -10.795,35.21375 -12.9575,31.75375 -0.5625,-0.9 1.61,-13.1075 6.47375,-29.53875 4.86375,-16.43 9.93,-22.26 11.11125,-23.03625 2.87,-1.885 -1.1775,6.89125 -1.2425,10.88125 -0.0863,5.2275 8.5675,25.74875 11.395,27.9325 2.95125,2.28125 7.455,-30.29375 13.23875,-29.34875 5.7825,0.945 17.815,49.27 16.1925,49.5275 -0.92375,0.145 -1.85625,-5.96125 -2.3025,-6.16375 -0.48125,-0.22 -0.73875,2.86375 -3.13875,4.15 -4.6575,2.495 -8.5675,-1.11375 -8.915,-4.235 -0.415,-3.71875 1.63375,-4.67625 2.7475,-5.01875 2.235,-0.6875 3.44875,0.23625 4.02625,0.9425 0.77125,0.9425 0.685,2.57125 -0.4275,4.1975 -0.72625,1.06125 -2.38125,-0.18125 -1.62875,-1.19875 1.4575,-1.97 0.34375,-2.15 -0.42875,-2.2275 -0.85625,-0.0863 -1.97,0.25625 -2.3125,1.6275 -0.3425,1.37125 0.085,2.7425 1.6275,3.94125 1.06875,0.8325 3.34125,1.11375 4.7125,-0.3425 0.525,-0.55875 0.9425,-1.71375 0.51375,-4.88375"
             inkscape:connector-curvature="0" />
          <path
             style="fill:#000000;fill-opacity:1;fill-rule:nonzero;stroke:none"
             id="path3013"
             d="m 271.17345,945.87413 c 2.12,-1.69125 -6.43625,-9.09375 -17.565,-5.05625 -10.62375,3.85625 -11.3525,15.59375 -8.7825,14.86875 2.57125,-0.7275 24.2275,-8.1225 26.3475,-9.8125 m -25.01875,14.22375 c -2.73125,0.79875 0.68875,10.40625 12.68,11.91 12.11875,1.1175 19.53625,-8.0325 20.885,-9.70375 3.9475,-4.4175 6.9225,-2.21125 3.40625,2.76375 -2.61875,3.20625 -8.43625,11.57 -22.5775,11.48125 -6.66,0.065 -18.27375,-3.2275 -21.12,-16.1725 -3.05375,-14.78 5.87125,-22.52375 14.52375,-24.7 17.9925,-4.41 28.08125,10.99 22.42625,13.06875 -5.655,2.08 -27.88375,10.47875 -30.22375,11.3525"
             inkscape:connector-curvature="0" />
          <path
             style="fill:#000000;fill-opacity:1;fill-rule:nonzero;stroke:none"
             id="path3017"
             d="m 301.56895,943.72988 c 1.95375,-0.65125 2.7225,-2.24875 2.84,-3.78625 0.28125,-3.64125 -4.02375,-4.26125 -5.8575,-2.4275 -1.4,1.4 -0.11375,3.26125 1.12375,1.77625 1.775,-2.13125 2.95875,-0.06 2.64375,1.16375 -0.34375,1.335 -1.9925,1.38 -2.64375,1.38 -2.4075,0 -6.48375,-3.35125 -2.7225,-6.785 3.76,-3.43375 20.24,0.63125 22.84375,1.69625 2.1425,0.87625 3.915,7.74375 2.02625,15.41125 -2.725,11.0625 -5.23125,12.7525 0,24.525 2.10375,4.7075 5.9275,1.78375 4.08875,-1.90375 -5.45,-11.33625 -1.79375,-13.6025 0,-21.8575 2.18,-10.0275 0.3725,-12.30125 -0.0788,-14.59625 -0.4925,-2.50625 6.70625,-2.44625 12.7825,-2.3675 6.47,0 9.705,-1.57875 12.7825,-5.2875 2.92,-4.26 -0.0587,-4.19125 -3.235,-1.81375 -2.56125,1.85625 -7.79625,4.08 -25.4075,3.155 -17.82125,-1.70625 -24.71,-3.48125 -28.88,0.79 -4.16875,4.27125 -0.98625,8.0675 1.3025,9.5675 1.775,1.1825 4.1425,2.13 6.39125,1.36"
             inkscape:connector-curvature="0" />
          <path
             style="fill:#000000;fill-opacity:1;fill-rule:nonzero;stroke:none"
             id="path3021"
             d="m 373.5612,968.426 c -6.1975,7.53625 -11.72375,11.8075 -20.51625,8.70875 -4.09375,-1.4725 -6.56625,-4.395 -7.07625,-7.725 -0.54375,-3.4125 1.0425,-7.65625 5.63875,-7.93125 4.59625,-0.27375 7.5825,3.73625 6.11125,7.30125 -1.0425,2.5275 -3.6775,1.5275 -2.48875,-0.84875 1.25,-2.50125 -1.1025,-4.4875 -3.17,-4.18875 -2.7,0.39125 -3.57875,3.2175 -3.265,5.10125 0.6275,3.83125 4.45875,5.15125 5.96625,5.71625 18.33875,5.58875 27.9275,-42.1425 28.85875,-45.82 2.1025,-8.46 20.72625,7.71375 16.01,48.45125 -0.4875,4.12625 -4.07625,4.08875 -3.63875,-0.585 3.69,-35.195 -8.35,-47.80375 -9.6175,-43.6025 -0.97875,3.9325 -4.10375,17.1675 -7.5375,25.03875 0,0 23.43,-9.98125 32.39625,-11.1125 2.99875,-0.3325 3.25375,2.085 0.77125,2.65875 -4.66375,1.38 -31.1575,10.04375 -38.4425,18.8375"
             inkscape:connector-curvature="0" />
          <path
             style="fill:#000000;fill-opacity:1;fill-rule:nonzero;stroke:none"
             id="path3025"
             d="m 838.4312,968.426 c -6.19625,7.53625 -11.72375,11.8075 -20.51625,8.70875 -4.09375,-1.4725 -6.56625,-4.395 -7.07625,-7.725 -0.54375,-3.4125 1.0425,-7.65625 5.63875,-7.93125 4.595,-0.27375 7.58375,3.73625 6.11125,7.30125 -1.04375,2.5275 -3.6775,1.5275 -2.48875,-0.84875 1.25125,-2.50125 -1.1025,-4.4875 -3.17,-4.18875 -2.7,0.39125 -3.57875,3.2175 -3.265,5.10125 0.6275,3.83125 4.45875,5.15125 5.96625,5.71625 18.33875,5.58875 27.9275,-42.1425 28.85875,-45.82 2.1025,-8.46 20.72625,7.71375 16.00875,48.45125 -0.48625,4.12625 -4.075,4.08875 -3.6375,-0.585 3.69,-35.195 -8.35,-47.80375 -9.6175,-43.6025 -0.98,3.9325 -4.10375,17.1675 -7.53625,25.03875 0,0 23.42875,-9.98125 32.39625,-11.1125 2.9975,-0.3325 3.25125,2.085 0.77,2.65875 -4.6625,1.38 -31.1575,10.04375 -38.4425,18.8375"
             inkscape:connector-curvature="0" />
          <path
             style="fill:#000000;fill-opacity:1;fill-rule:nonzero;stroke:none"
             id="path3029"
             d="m 424.8637,970.92413 c 0.255,1.62125 2.03625,5.33 7.53125,5.06875 6.10875,-0.2925 15.35875,-10.8125 15.4025,-22.73625 0.04,-10.97875 -8.4375,-23.665 -17.41875,-24.375 -2.97375,-0.235 -5.9225,1.28875 -5.42375,3.79 0.45625,2.28875 2.67625,2.64 4.29125,2.74 2.92125,0.18 3.1,2.90625 -0.095,2.94 -3.1525,0.0325 -6.815,-1.27125 -7.4225,-4.91125 -0.93625,-5.61125 4.085,-8.4125 8.65,-7.86875 14.2575,1.69625 17.45875,17.27125 19.51125,17.06125 2.2875,-0.23375 5.9875,-13.3975 14.97375,-16.675 6.46625,-2.35625 11.615,1.375 11.3625,7.43625 -0.27375,4.28625 -4.27375,6.57375 -8.0725,4.7075 -3.72,-1.935 -1.555,-6.37625 1.475,-6.18125 2.2725,0.1475 2.57,1.4825 2.5425,1.98875 -0.0587,1.11 -1.13875,1.39875 -1.285,0.525 -0.1175,-0.7 -0.91625,-0.87625 -1.40375,-0.87625 -0.9075,0 -1.875,1.0725 -1.31375,2.105 0.70125,1.51875 5.6975,2.27875 5.9025,-2.42625 0.205,-5.4375 -6.88875,-6.095 -10.16,-3.26375 -2.6,2.24875 -11.155,9.97125 -11.145,23.10875 0.005,9.425 5.70375,17.77875 13.11,21.6775 1.3025,0.685 4.0425,1.9475 7.66875,0.54875 5.64125,-2.17875 6.89375,1.84 1.37,3.4225 -3.09375,0.8875 -7.1275,1.00375 -11.7075,-1.2325 -7.615,-3.7175 -11.08375,-13.4875 -13.0725,-13.4875 -1.98625,0 -7.54,16.3075 -18.5625,15.54125 -8.18375,-0.5675 -10.02375,-5.80375 -10.40625,-8.48875 -0.5475,-3.835 3.12,-3.8 3.6975,-0.13875"
             inkscape:connector-curvature="0" />
          <path
             style="fill:#000000;fill-opacity:1;fill-rule:nonzero;stroke:none"
             id="path3033"
             d="m 564.52733,945.30276 c -2.30125,3.67375 0.74875,-10.46375 3.57625,-13.895 3.74125,-4.54125 -16.96,1.9825 -16.43375,21.77875 0.41375,15.63 10.46125,21.20625 17.99125,21.51 11.045,0.44625 19.06125,-9.97625 19.42,-21.37625 0.42625,-13.62125 -7.88625,-22.58 -15.5,-18.83875 -4.25125,2.0875 -7.195,7.85875 -9.05375,10.82125 m 28.8125,7.03875 c 0.175,14.9325 -10.04,26.80875 -22.9675,26.4575 -10.6075,-0.2875 -22.15375,-7.8175 -22.52875,-24.88625 -0.38375,-17.5225 11.36125,-27.26875 21.30625,-27.6825 13.6675,-0.56625 23.99625,9.605 24.19,26.11125"
             inkscape:connector-curvature="0" />
          <path
             style="fill:#000000;fill-opacity:1;fill-rule:nonzero;stroke:none"
             id="path3037"
             d="m 608.8877,966.59375 c -2.5525,-4.81875 -5.365,-2.09375 -3.5375,1.4875 2.195,4.30375 6.0925,10.025 13.54375,10.1075 15.57625,0.2525 16.20375,-24.82125 16.7075,-39.82125 l 23.9125,0 -0.3075,35.80125 c 0,4.84375 4.3575,4.74125 4.3575,-0.2175 l 0,-92.80625 c 0,-4.655 -4.35,-4.9875 -4.35,0.0362 -0.002,5.025 0.13,52.09375 0.13,52.09375 l -23.82625,-0.0288 c 0,0 0.055,-23.9125 0.055,-39.62875 0,-6.23375 0.007,-11.21 0.007,-12.5425 0,-4.68875 -4.5125,-4.62125 -4.5125,-0.0238 0,1.6975 0.0138,9.71125 0.0138,19.11 0,16.05125 -0.005,36.2325 -0.005,36.2325 0.0838,26.92125 -4.27,38.31625 -12.81125,37.72875 -4.2175,-0.28875 -7.11625,-3.2575 -9.3775,-7.52875"
             inkscape:connector-curvature="0" />
          <path
             style="fill:#000000;fill-opacity:1;fill-rule:nonzero;stroke:none"
             id="path3041"
             d="m 687.35083,927.22538 c 0,8.04625 -1.2925,28.83875 0.0638,34.39625 3.89375,15.9525 16.8525,15.8675 18.695,15.8475 13.52375,-0.14625 14.885,-11.535 17.23,-11.7025 1.50375,-0.1075 2.68,9.49125 11.91125,10.865 7.87125,1.1725 10.80625,-5.02 9.35375,-10.3 -1.33125,-4.83625 -5.41375,-7.15875 -9.01125,-4.61375 -4.51,3.19125 0.0175,9.13625 1.315,7.29375 0.84125,-1.19125 -2.5525,-3.245 -0.5,-5.1925 4.62625,-4.38875 10.38375,11.55625 -0.7975,9.61 -3.8825,-0.67625 -8.205,-5.05125 -9.69625,-13.50375 -1.13125,-6.405 -0.5175,-25.49 -0.545,-32.1975 -0.0213,-5.045 -4.79375,-5.4425 -4.79375,-0.0838 0,10.7825 -0.0625,18.485 -0.0625,27.6975 0,10.55625 -7.805,17.27125 -13.62875,17.45875 -4.8575,0.1575 -14.51,-1.5275 -15.17875,-15.76375 -0.23,-4.8775 0.4825,-22.05875 0.4825,-29.76875 0,-5.36 -4.8375,-5.0675 -4.8375,-0.0425"
             inkscape:connector-curvature="0" />
          <path
             style="fill:#000000;fill-opacity:1;fill-rule:nonzero;stroke:none"
             id="path3045"
             d="m 762.7427,974.13151 c -0.05,-5.035 0,-79.335 0.04,-82.01375 0.15625,-10.46875 -6.9075,-5.57375 -6.9075,-7.415 0,-2.42875 11.37125,-12.73875 11.43875,-8.00125 0.0838,5.7475 0.0163,58.315 0.003,67.29125 -10e-4,0.94125 0.28875,0.92375 1.0275,0.3025 4.36125,-3.6625 5.12125,-12.255 10.59125,-16.82375 2.545,-2.125 6.245,-3.845 10.7275,-3.46375 6.5575,0.5575 10.0475,4.36 9.76125,9.78875 -0.4575,8.64375 -12.28375,6.8775 -12.83875,1.70625 -0.46875,-4.375 5.5725,-5.365 3.0725,-2.34375 -2.51625,3.0425 5.4925,6.48375 6.26,0.52125 0.4825,-3.74375 -2.5475,-6.0275 -6.45375,-6.0025 -2.09,0.0138 -4.49375,0.065 -7.41,2.2 -4.3775,3.20625 -6.95625,14.2425 -10.7075,17.88125 -0.7025,0.68125 -0.4525,1.405 0.19625,1.9825 3.22875,2.8775 18.19625,17.6875 23.405,22.73 4.49125,4.34875 0.72625,6.6925 -2.4775,3.64625 -3.68875,-3.50875 -21.025,-21.01 -24.21375,-23.1875 -0.59875,-0.41 -0.94375,-0.1625 -0.945,0.6725 -0.01,4.37375 -0.0362,14.09625 0.002,19.86875 0.0388,5.755 -4.53125,4.6825 -4.57125,0.66"
             inkscape:connector-curvature="0" />
        </g>
        <path
           style="fill:#000000;fill-opacity:1;fill-rule:nonzero;stroke:none"
           d="m 72.0625,879.88578 c 38.15,0 69.09375,30.91125 69.09375,69.0625 0,38.15125 -30.94375,69.09372 -69.09375,69.09372 C 33.91125,1018.042 3,987.09953 3,948.94828 c 0,-38.15125 30.91125,-69.0625 69.0625,-69.0625 z m -6.03125,30.3125 c -14.08024,-0.59037 -47.47703,35.8943 -37.5625,50.5 5.7925,8.53125 37.3125,40.96372 49.25,20.15625 12.06,-21.0225 50.1325,-9.0125 37.625,-20.15625 -16.19375,-14.4275 -40.8425,-14.10875 -43.4375,-43.4375 -0.42539,-4.8082 -2.62572,-6.92626 -5.875,-7.0625 z M 61.875,921.97953 c 2.3075,0 4.87125,6.10125 7.78125,10.4375 2.02125,3.01125 5.59,5.375 3.28125,5.375 -2.30875,0 -8.45375,-0.18875 -11.375,-4.03125 -2.195,-2.8875 -1.99625,-11.78125 0.3125,-11.78125 z M 83,969.85453 c 0.24244,-0.003 0.34547,0.42094 0.0937,1.6875 -0.67125,3.3775 -9.9825,10.7475 -10.84375,6.25 -0.55,-2.8725 1.45125,-4.11875 3.90625,-4.53125 4.945,-0.83 4.915,-1.67625 5.34375,-2.03125 0.26797,-0.22109 1.09592,-1.37015 1.5,-1.375 z"
           id="MetachronicaLogoCircle"
           inkscape:connector-curvature="0">
          <desc
             id="desc3134">Author: Mark Korneev
License: CC Attribution-ShareAlike (CC-BY-SA)</desc>
        </path>
      </g>
    </g>
  </g>
</svg>
